<svg width="346" height="100" viewBox="0 0 346 100" fill="none" xmlns="http://www.w3.org/2000/svg">
<rect x="0.5" y="0.5" width="345" height="99" rx="11.5" stroke="#808080"/>
<path d="M317 43V57" stroke="#262626" stroke-width="2" stroke-linecap="round" stroke-linejoin="round"/>
<path d="M310 50H324" stroke="#262626" stroke-width="2" stroke-linecap="round" stroke-linejoin="round"/>
<g clip-path="url(#clip0_134_3)">
<path d="M26 57.0004C21 58.5004 21 54.5004 19 54.0004M33 60.0004V56.1304C33.0375 55.6536 32.9731 55.1742 32.811 54.7242C32.6489 54.2742 32.3929 53.8638 32.06 53.5204C35.2 53.1704 38.5 51.9804 38.5 46.5204C38.4997 45.1243 37.9627 43.7816 37 42.7704C37.4559 41.5489 37.4236 40.1988 36.91 39.0004C36.91 39.0004 35.73 38.6504 33 40.4804C30.708 39.8592 28.292 39.8592 26 40.4804C23.27 38.6504 22.09 39.0004 22.09 39.0004C21.5764 40.1988 21.5441 41.5489 22 42.7704C21.0301 43.7891 20.4925 45.1439 20.5 46.5504C20.5 51.9704 23.8 53.1604 26.94 53.5504C26.611 53.8904 26.3573 54.2958 26.1953 54.7403C26.0334 55.1849 25.9668 55.6585 26 56.1304V60.0004" stroke="#4D4D4D" stroke-width="2" stroke-linecap="round" stroke-linejoin="round"/>
</g>
<path d="M61.4688 21.3281H63.8438C63.5312 19.1016 61.5703 17.5312 59.0156 17.5312C56.0312 17.5312 53.7344 19.6875 53.7344 23.3594C53.7344 26.9375 55.8906 29.1562 59.0625 29.1562C61.9141 29.1562 63.9531 27.3438 63.9531 24.375V22.9688H59.2344V24.7344H61.6875C61.6562 26.1562 60.6953 27.0703 59.0781 27.0781C57.2734 27.0703 56.125 25.7188 56.125 23.3281C56.125 20.9531 57.3125 19.6172 59.0625 19.6094C60.2969 19.6172 61.1484 20.2656 61.4688 21.3281ZM66.1562 29H68.4688V20.5156H66.1562V29ZM66.0469 18.2344C66.0469 18.875 66.6172 19.4062 67.3125 19.4062C68 19.4062 68.5703 18.875 68.5625 18.2344C68.5703 17.5781 68 17.0547 67.3125 17.0469C66.6172 17.0547 66.0469 17.5781 66.0469 18.2344ZM74.7344 20.5156H73.1406V18.4844H70.8281V20.5156H69.6562V22.25H70.8281V26.7188C70.8125 28.3672 71.9531 29.1172 73.625 29.1094C74.1953 29.1172 74.6094 29.0703 74.8594 29.0312V27.2031C74.5781 27.2266 74.1719 27.25 73.9375 27.25C73.4688 27.2344 73.1328 27.0703 73.1406 26.3906V22.25H74.7344V20.5156ZM76.4219 29H78.7656V24.3125H83.6719V29H86.0312V17.6875H83.6719V22.375H78.7656V17.6875H76.4219V29ZM93.3281 25.3906C93.3281 26.5469 92.5312 27.1484 91.6875 27.1562C90.7812 27.1484 90.2031 26.5234 90.2031 25.5156V20.5156H87.8906V25.9219C87.8906 27.9062 89.0547 29.1094 90.75 29.1094C92.0312 29.1094 92.9453 28.4531 93.3281 27.4688H93.4219V29H95.6406V20.5156H93.3281V25.3906ZM97.4844 29H99.7656V27.6406H99.8594C100.195 28.3438 100.898 29.1406 102.281 29.1406C104.219 29.1406 105.727 27.6016 105.734 24.7656C105.727 21.8594 104.156 20.4062 102.281 20.4062C100.852 20.4062 100.18 21.25 99.8594 21.9375H99.7969V17.6875H97.4844V29ZM99.75 24.75C99.7422 23.2266 100.398 22.25 101.547 22.25C102.742 22.25 103.367 23.2734 103.359 24.75C103.367 26.25 102.727 27.2891 101.547 27.2969C100.406 27.2891 99.7422 26.2812 99.75 24.75ZM122.328 24.9219H112.547V26.5312H120.328V30.4688H122.328V24.9219ZM111.234 23.5781H112.469C114.609 23.5781 116.914 23.4219 119.359 22.9375L119.125 21.3281C117.062 21.7266 115.07 21.8906 113.234 21.9297V16.9844H111.234V23.5781ZM120.328 24.3438H122.328V16.2344H120.328V24.3438ZM126.797 17.5781H124.797V27.0312H125.797C127.625 27.0391 129.156 26.9766 130.906 26.5938L130.641 24.9219C129.305 25.2031 128.102 25.2969 126.797 25.3203V17.5781ZM128.797 22.3281H131.641V29.8125H133.531V16.4844H131.641V20.7188H128.797V22.3281ZM134.703 30.4375H136.578V16.2188H134.703V30.4375ZM149.984 16.2344H147.984V24.2656H149.984V16.2344ZM138.297 20.3125C138.297 22.2656 139.969 23.7031 142.188 23.7031C144.398 23.7031 146.07 22.2656 146.078 20.3125C146.07 18.2812 144.398 16.875 142.188 16.875C139.969 16.875 138.297 18.2812 138.297 20.3125ZM140.25 20.3125C140.234 19.1953 141.047 18.5469 142.188 18.5469C143.297 18.5469 144.102 19.1953 144.109 20.3125C144.102 21.3672 143.297 22.0312 142.188 22.0312C141.047 22.0312 140.234 21.3672 140.25 20.3125ZM140.453 30.2812H149.984V24.9062H140.453V30.2812ZM142.422 28.6875V26.4844H148.031V28.6875H142.422ZM158.391 16.4219C155.109 16.4219 153.203 17.2812 153.203 18.8438C153.203 20.4297 155.109 21.2812 158.391 21.2812C161.664 21.2812 163.555 20.4297 163.562 18.8438C163.555 17.2812 161.664 16.4219 158.391 16.4219ZM151.906 23.5312H164.875V21.9531H151.906V23.5312ZM153.406 25.8125H161.328V26.5938H153.422V30.3438H163.672V28.8438H155.375V27.9844H163.297V24.3594H153.406V25.8125ZM155.297 18.8438C155.289 18.2109 156.305 17.875 158.391 17.875C160.492 17.875 161.5 18.2109 161.5 18.8438C161.5 19.5391 160.492 19.8125 158.391 19.8125C156.305 19.8125 155.289 19.5391 155.297 18.8438ZM182.391 24.7344H169.422V26.3594H174.906V30.4531H176.875V26.3594H182.391V24.7344ZM170.078 22.4062L170.797 23.9688C173.227 23.6953 174.977 22.7188 175.906 21.4141C176.828 22.7031 178.57 23.6953 180.984 23.9688L181.703 22.4062C178.758 22.0781 177.156 20.6719 176.938 19.4219H181.203V17.8594H176.875V16.2344H174.906V17.8594H170.594V19.4219H174.875C174.633 20.6875 173.031 22.0781 170.078 22.4062ZM194.469 16.2188H192.469V30.4062H194.469V23.3125H196.484V21.6719H194.469V16.2188ZM183.094 26.4219L184.219 27.9531C189 25.6016 190.656 21.9219 190.672 17.6719H183.906V19.2969H188.648C188.273 22.4688 186.461 24.7344 183.094 26.4219ZM203.938 18.3906H201.5V16.6094H199.531V18.3906H197.062V19.9688H203.938V18.3906ZM197.391 23.9844C197.391 25.9688 198.719 27.375 200.531 27.375C202.352 27.375 203.648 25.9688 203.656 23.9844C203.648 22.0078 202.352 20.6172 200.531 20.6094C198.719 20.6172 197.391 22.0078 197.391 23.9844ZM199.141 23.9844C199.141 22.9141 199.703 22.2656 200.531 22.2656C201.328 22.2656 201.898 22.9141 201.906 23.9844C201.898 25.0703 201.328 25.6875 200.531 25.6875C199.703 25.6875 199.141 25.0703 199.141 23.9844ZM204.469 29.8281H206.328V23.5938H207.484V30.4375H209.375V16.2188H207.484V22H206.328V16.5H204.469V29.8281ZM216.281 19.4375V17.3125H214.266V19.4375C214.25 22.1094 213.141 24.8516 210.703 25.9531L211.953 27.5781C213.578 26.7812 214.672 25.25 215.281 23.3828C215.875 25.1406 216.938 26.5625 218.516 27.3281L219.734 25.7344C217.367 24.7109 216.289 22.1094 216.281 19.4375ZM218.141 22.2969H220.938V30.4688H222.906V16.2188H220.938V20.6875H218.141V22.2969ZM60.7188 41.5781H54.1562V43.1719H58.7266C58.6719 43.8516 58.5703 44.4922 58.4062 45.0938L53.3906 45.3906L53.6562 47.0781L57.7891 46.7031C56.9688 48.2812 55.5625 49.6016 53.3125 50.7812L54.4062 52.2812C59.5312 49.6172 60.7109 45.9531 60.7188 41.5781ZM60.6875 47.3125H63.4219V54.4375H65.4062V40.2188H63.4219V45.6875H60.6875V47.3125ZM79.1562 40.2188H77.1562V49.6875H79.1562V40.2188ZM67.9688 47.8906H74.9219V41.3594H67.9688V47.8906ZM68.75 52.8125L69.5312 54.3906C71.8125 54.0156 73.4531 53.0078 74.3047 51.6328C75.1406 53.0156 76.7891 54.0312 79.1094 54.3906L79.875 52.8125C76.8281 52.3906 75.3438 50.8438 75.3594 49.25V48.9375H73.2656V49.25C73.2656 50.8359 71.7578 52.4062 68.75 52.8125ZM69.9375 46.3125V42.9375H72.9375V46.3125H69.9375ZM96.7188 40.2188H94.7031V54.4375H96.7188V40.2188ZM84.8125 50.4062L85.8594 52C90.9375 49.6016 92.4453 46.0156 92.4531 41.7031H85.5781V43.2656H90.4219C90.1016 46.4219 88.4844 48.6719 84.8125 50.4062ZM111.594 47.8438H106.078V46.8125H110.281V45.2812H102.188V44.3438H110.016V40.4844H100.172V42.0312H108.016V42.9062H100.203V46.8125H104.094V47.8438H98.5781V49.4375H111.594V47.8438ZM100.031 51.8125H108.078V54.375H110.094V50.25H100.031V51.8125ZM118.906 40.4219C115.625 40.4219 113.719 41.2812 113.719 42.8438C113.719 44.4297 115.625 45.2812 118.906 45.2812C122.18 45.2812 124.07 44.4297 124.078 42.8438C124.07 41.2812 122.18 40.4219 118.906 40.4219ZM112.422 47.5312H125.391V45.9531H112.422V47.5312ZM113.922 49.8125H121.844V50.5938H113.938V54.3438H124.188V52.8438H115.891V51.9844H123.812V48.3594H113.922V49.8125ZM115.812 42.8438C115.805 42.2109 116.82 41.875 118.906 41.875C121.008 41.875 122.016 42.2109 122.016 42.8438C122.016 43.5391 121.008 43.8125 118.906 43.8125C116.82 43.8125 115.805 43.5391 115.812 42.8438ZM141.312 40.2344H139.312V49.8906H141.312V45.9375H143.125V44.2969H141.312V40.2344ZM129.781 48.0625L129.984 49.6094C132.492 49.6094 135.789 49.5781 138.797 49.0469L138.656 47.6719C137.562 47.8125 136.391 47.8984 135.219 47.9609V47.2266C136.742 47.0078 137.695 46.2578 137.703 45.1719C137.695 43.8516 136.312 43.0391 134.219 43.0469C132.109 43.0391 130.727 43.8516 130.734 45.1719C130.727 46.2578 131.688 47.0156 133.234 47.2344V48.0312C132 48.0625 130.82 48.0625 129.781 48.0625ZM130.156 42.7188H138.297V41.2656H135.219V40.1094H133.234V41.2656H130.156V42.7188ZM131.594 52H139.312V54.4375H141.312V50.4688H131.594V52ZM132.641 45.1719C132.633 44.6172 133.203 44.375 134.219 44.375C135.219 44.375 135.789 44.6172 135.797 45.1719C135.789 45.6875 135.219 45.9922 134.219 45.9844C133.203 45.9922 132.633 45.6875 132.641 45.1719ZM155.672 40.2344H153.672V50.4531H155.672V40.2344ZM143.984 44.7188C143.984 46.8359 145.688 48.3281 147.875 48.3281C150.055 48.3281 151.758 46.8359 151.766 44.7188C151.758 42.6328 150.055 41.1328 147.875 41.1406C145.688 41.1328 143.984 42.6328 143.984 44.7188ZM145.938 44.7188C145.922 43.5625 146.758 42.8672 147.875 42.875C148.953 42.8672 149.789 43.5625 149.797 44.7188C149.789 45.9062 148.953 46.5938 147.875 46.5938C146.758 46.5938 145.922 45.9062 145.938 44.7188ZM146.141 54.1875H156.047V52.5938H148.156V49.4219H146.141V54.1875ZM168.812 40.2188H166.844V54.4375H168.812V47.4219H170.906V45.7812H168.812V40.2188ZM157.516 43.9375H165.875V42.3438H162.734V40.4375H160.734V42.3438H157.516V43.9375ZM158.094 48.125C158.086 50.1094 159.633 51.5078 161.734 51.5156C163.805 51.5078 165.359 50.1094 165.359 48.125C165.359 46.1406 163.805 44.7266 161.734 44.7344C159.633 44.7266 158.086 46.1406 158.094 48.125ZM160 48.125C160 47.0312 160.727 46.3594 161.734 46.3438C162.727 46.3594 163.453 47.0312 163.453 48.125C163.453 49.2266 162.727 49.8828 161.734 49.875C160.727 49.8828 160 49.2266 160 48.125ZM175.984 43.7969V41.4375H174.047V43.8906C174.047 46.2969 173.266 48.8047 171.156 50.1094L172.375 51.5781C173.664 50.7969 174.516 49.4453 175.023 47.8359C175.477 49.2891 176.25 50.5234 177.484 51.2656L178.562 49.7188C176.617 48.4766 175.977 46.1016 175.984 43.7969ZM177.062 46.6406H178.906V53.7812H180.766V40.4219H178.906V45.0156H177.062V46.6406ZM181.844 54.4375H183.75V40.2188H181.844V54.4375ZM198.266 51.1406H195.375V47.6172C196.445 46.9531 197.086 45.9609 197.094 44.7344C197.086 42.4297 194.812 40.9141 191.734 40.9062C188.641 40.9141 186.391 42.4297 186.391 44.7344C186.391 45.9844 187.055 46.9922 188.156 47.6562V51.1406H185.25V52.7812H198.266V51.1406ZM188.359 44.7344C188.359 43.3047 189.695 42.4766 191.734 42.4844C193.742 42.4766 195.117 43.3047 195.125 44.7344C195.117 46.125 193.742 46.9844 191.734 46.9844C189.695 46.9844 188.359 46.125 188.359 44.7344ZM190.125 51.1406V48.3828C190.625 48.4766 191.164 48.5312 191.734 48.5312C192.305 48.5312 192.852 48.4766 193.359 48.375V51.1406H190.125ZM200.922 53.1406C201.617 53.1406 202.219 52.5547 202.219 51.8281C202.219 51.1094 201.617 50.5234 200.922 50.5312C200.188 50.5234 199.594 51.1094 199.609 51.8281C199.594 52.5547 200.188 53.1406 200.922 53.1406Z" fill="#4D4D4D"/>
<path d="M57.4844 68.1094H58.2109C58 67.0156 57.0781 66.2656 55.8828 66.2656C54.4297 66.2656 53.4023 67.3828 53.4062 69.1719C53.4023 70.9609 54.418 72.0781 55.9297 72.0781C57.2773 72.0781 58.2422 71.1758 58.2422 69.7734V69.1641H56.0781V69.7812H57.5547C57.543 70.7852 56.8828 71.418 55.9297 71.4219C54.8828 71.418 54.0898 70.6289 54.0859 69.1719C54.0898 67.7109 54.8828 66.9219 55.8828 66.9219C56.6914 66.9219 57.2422 67.3828 57.4844 68.1094ZM59.4766 72H60.1484V67.7578H59.4766V72ZM59.3438 66.6094C59.3398 66.8555 59.5547 67.0547 59.8125 67.0547C60.0703 67.0547 60.2852 66.8555 60.2891 66.6094C60.2852 66.3594 60.0703 66.1602 59.8125 66.1641C59.5547 66.1602 59.3398 66.3594 59.3438 66.6094ZM63.0703 67.7578H62.1797V66.7422H61.5V67.7578H60.8594V68.3203H61.5V70.9531C61.5039 71.7031 62.0977 72.0547 62.6641 72.0547C62.8633 72.0547 63.0273 72.0391 63.1328 72.0234V71.3984C63.0352 71.4023 62.8555 71.4141 62.7344 71.4141C62.4492 71.4141 62.1758 71.3242 62.1797 70.7812V68.3203H63.0703V67.7578ZM64.1172 72H64.8203V69.4766H67.8125V72H68.5234V66.3438H67.8125V68.8594H64.8203V66.3438H64.1172V72ZM72.3594 70.2578C72.3555 71.0508 71.7539 71.4102 71.2734 71.4062C70.7305 71.4102 70.3516 71.0156 70.3516 70.4062V67.7578H69.6797V70.4531C69.6758 71.5312 70.25 72.0547 71.0547 72.0547C71.6914 72.0547 72.1133 71.7109 72.3125 71.2812H72.3594V72H73.0234V67.7578H72.3594V70.2578ZM74.1875 72H74.8359V71.3516H74.9141C75.0586 71.5859 75.3359 72.0898 76.1484 72.0859C77.2031 72.0898 77.9492 71.2383 77.9531 69.8906C77.9492 68.5469 77.2031 67.7031 76.1406 67.7031C75.3125 67.7031 75.0586 68.2031 74.9141 68.4297H74.8594V66.3438H74.1875V72ZM74.8438 69.875C74.8438 68.9336 75.2656 68.3047 76.0469 68.3047C76.8672 68.3047 77.2695 68.9883 77.2734 69.875C77.2695 70.7773 76.8555 71.4844 76.0469 71.4844C75.2734 71.4844 74.8438 70.8281 74.8438 69.875ZM81.1719 72L81.7383 70.4062H84.0117L84.5781 72H85.3203L83.25 66.3438H82.5078L80.4375 72H81.1719ZM81.9531 69.7891L82.8516 67.2578H82.8984L83.7969 69.7891H81.9531ZM87.7266 72.0859C88.668 72.0898 89.293 71.5078 89.3984 70.75H88.7266C88.6094 71.2148 88.2266 71.4844 87.7266 71.4844C86.957 71.4844 86.4648 70.8555 86.4609 69.875C86.4648 68.9219 86.9688 68.2969 87.7266 68.2969C88.293 68.2969 88.6289 68.6523 88.7266 69.0391H89.3984C89.293 68.2383 88.6133 67.7031 87.7109 67.7031C86.5586 67.7031 85.7891 68.6094 85.7891 69.8984C85.7891 71.1719 86.5234 72.0898 87.7266 72.0859ZM91.9609 72.0859C92.9023 72.0898 93.5273 71.5078 93.6328 70.75H92.9609C92.8438 71.2148 92.4609 71.4844 91.9609 71.4844C91.1914 71.4844 90.6992 70.8555 90.6953 69.875C90.6992 68.9219 91.2031 68.2969 91.9609 68.2969C92.5273 68.2969 92.8633 68.6523 92.9609 69.0391H93.6328C93.5273 68.2383 92.8477 67.7031 91.9453 67.7031C90.793 67.7031 90.0234 68.6094 90.0234 69.8984C90.0234 71.1719 90.7578 72.0898 91.9609 72.0859ZM96.2422 72.0859C97.1172 72.0898 97.7461 71.6523 97.9453 71.0078H97.2266C97.0703 71.2695 96.75 71.4922 96.2422 71.4922C95.4883 71.4922 94.9648 71 94.9297 70.1016H98.0078V69.8203C98.0117 68.25 97.0703 67.7031 96.1797 67.7031C95.0273 67.7031 94.2578 68.6094 94.2578 69.9141C94.2578 71.2148 95.0156 72.0898 96.2422 72.0859ZM94.9336 69.5312C94.9805 68.875 95.4453 68.2969 96.1797 68.2969C96.8789 68.2969 97.3242 68.8242 97.3281 69.5312H94.9336ZM101.242 68.8594H101.898C101.812 68.1719 101.262 67.7031 100.383 67.7031C99.4492 67.7031 98.8125 68.2266 98.8125 68.9531C98.8125 69.5195 99.207 69.9219 99.9453 70.0938L100.586 70.2422C101.066 70.3555 101.281 70.5508 101.281 70.8516C101.281 71.25 100.902 71.5039 100.297 71.5C99.7617 71.5039 99.4609 71.3047 99.3828 70.8906H98.6797C98.793 71.6641 99.3594 72.0898 100.312 72.0859C101.375 72.0898 101.973 71.5469 101.977 70.8125C101.973 70.2227 101.602 69.8438 100.844 69.6641L100.211 69.5078C99.7148 69.3867 99.4883 69.1953 99.4844 68.9141C99.4883 68.5586 99.8594 68.2773 100.383 68.2734C100.879 68.2773 101.148 68.5078 101.242 68.8594ZM105.211 68.8594H105.867C105.781 68.1719 105.23 67.7031 104.352 67.7031C103.418 67.7031 102.781 68.2266 102.781 68.9531C102.781 69.5195 103.176 69.9219 103.914 70.0938L104.555 70.2422C105.035 70.3555 105.25 70.5508 105.25 70.8516C105.25 71.25 104.871 71.5039 104.266 71.5C103.73 71.5039 103.43 71.3047 103.352 70.8906H102.648C102.762 71.6641 103.328 72.0898 104.281 72.0859C105.344 72.0898 105.941 71.5469 105.945 70.8125C105.941 70.2227 105.57 69.8438 104.812 69.6641L104.18 69.5078C103.684 69.3867 103.457 69.1953 103.453 68.9141C103.457 68.5586 103.828 68.2773 104.352 68.2734C104.848 68.2773 105.117 68.5078 105.211 68.8594ZM108.602 66.9688H110.383V72H111.094V66.9688H112.867V66.3438H108.602V66.9688ZM114.836 72.0859C115.988 72.0898 116.762 71.2148 116.758 69.8984C116.762 68.5742 115.988 67.7031 114.836 67.7031C113.68 67.7031 112.898 68.5742 112.898 69.8984C112.898 71.2148 113.68 72.0898 114.836 72.0859ZM113.57 69.8984C113.574 69.0547 113.973 68.2969 114.836 68.2969C115.691 68.2969 116.086 69.0547 116.086 69.8984C116.086 70.7461 115.691 71.4922 114.836 71.4922C113.973 71.4922 113.574 70.7461 113.57 69.8984ZM117.641 72H118.312V70.418L118.762 70L120.336 72H121.188L119.266 69.5742L121.055 67.7578H120.227L118.391 69.6328H118.312V66.3438H117.641V72ZM123.375 72.0859C124.25 72.0898 124.879 71.6523 125.078 71.0078H124.359C124.203 71.2695 123.883 71.4922 123.375 71.4922C122.621 71.4922 122.098 71 122.062 70.1016H125.141V69.8203C125.145 68.25 124.203 67.7031 123.312 67.7031C122.16 67.7031 121.391 68.6094 121.391 69.9141C121.391 71.2148 122.148 72.0898 123.375 72.0859ZM122.066 69.5312C122.113 68.875 122.578 68.2969 123.312 68.2969C124.012 68.2969 124.457 68.8242 124.461 69.5312H122.066ZM126.688 69.4531C126.688 68.7188 127.141 68.3047 127.758 68.3047C128.359 68.3047 128.719 68.6953 128.719 69.3516V72H129.391V69.3047C129.395 68.2266 128.82 67.7031 127.961 67.7031C127.316 67.7031 126.918 67.9883 126.719 68.4219H126.664V67.7578H126.016V72H126.688V69.4531ZM133.375 65.8125C131.824 65.8125 130.914 66.2383 130.914 67.0078C130.914 67.7969 131.824 68.2227 133.375 68.2266C134.918 68.2227 135.824 67.7969 135.828 67.0078C135.824 66.2383 134.918 65.8125 133.375 65.8125ZM130.211 69.1953H136.539V68.6953H130.211V69.1953ZM130.977 70.2656H135.125V70.8984H130.992V72.5547H135.938V72.0703H131.602V71.3516H135.727V69.7969H130.977V70.2656ZM131.555 67.0078C131.547 66.5508 132.223 66.2773 133.375 66.2734C134.527 66.2773 135.199 66.5508 135.203 67.0078C135.199 67.4922 134.527 67.7578 133.375 67.7578C132.223 67.7578 131.547 67.4922 131.555 67.0078ZM145.469 68.9922H139.133V69.5078H145.469V68.9922ZM139.898 71.3672C139.895 72.1719 140.797 72.6172 142.297 72.6172C143.785 72.6172 144.68 72.1719 144.688 71.3672C144.68 70.5703 143.785 70.1172 142.297 70.1172C140.797 70.1172 139.895 70.5703 139.898 71.3672ZM139.938 68.3281H144.727V67.8281H140.539V66.4844H144.68V65.9688H139.938V68.3281ZM140.523 71.3672C140.516 70.8828 141.184 70.6016 142.297 70.5938C143.398 70.6016 144.066 70.8828 144.07 71.3672C144.066 71.8555 143.398 72.1328 142.297 72.1328C141.184 72.1328 140.516 71.8555 140.523 71.3672ZM152.398 69.5156H149.516V68.7812H151.727V68.2891H147.477V67.5469H151.578V65.8672H146.844V66.3672H150.961V67.0859H146.867V68.7812H148.914V69.5156H146.039V70.0234H152.398V69.5156ZM146.75 71.0547H151V72.5703H151.617V70.5547H146.75V71.0547ZM158.336 65.6875H157.727V72.6328H158.336V69.0625H159.5V68.5547H158.336V65.6875ZM152.922 67.3125H157.055V66.8047H155.32V65.7734H154.711V66.8047H152.922V67.3125ZM153.32 69.4844C153.316 70.4258 154.035 71.0781 155.023 71.0781C156.004 71.0781 156.719 70.4258 156.727 69.4844C156.719 68.5469 156.004 67.8906 155.023 67.8906C154.035 67.8906 153.316 68.5469 153.32 69.4844ZM153.906 69.4844C153.902 68.8555 154.375 68.4023 155.023 68.4062C155.664 68.4023 156.133 68.8555 156.141 69.4844C156.133 70.1172 155.664 70.5625 155.023 70.5547C154.375 70.5625 153.902 70.1172 153.906 69.4844ZM163.391 66.2969H160.203V69.5391H163.391V68.9141H165.016V70.7656H165.633V65.6953H165.016V66.9141H163.391V66.2969ZM160.812 69.0469V66.8047H162.789V69.0469H160.812ZM161.141 72.4844H165.789V71.9688H161.758V70.3125H161.141V72.4844ZM163.391 68.4062V67.4297H165.016V68.4062H163.391ZM53.625 84H54.3281V81.9453H55.5547C56.8711 81.9453 57.4766 81.1445 57.4766 80.1406C57.4766 79.1328 56.8711 78.3438 55.5469 78.3438H53.625V84ZM54.3281 81.3203V78.9688H55.5156C56.4258 78.9688 56.7773 79.4648 56.7812 80.1406C56.7773 80.8125 56.4258 81.3203 55.5234 81.3203H54.3281ZM58.375 84H59.0469V81.3281C59.0469 80.7578 59.5 80.3359 60.1094 80.3359C60.2852 80.3359 60.4648 80.3711 60.5156 80.3828V79.7031C60.4375 79.6953 60.2656 79.6914 60.1641 79.6875C59.6641 79.6914 59.2227 79.9766 59.0703 80.4062H59.0234V79.7578H58.375V84ZM61.1719 84H61.8438V79.7578H61.1719V84ZM61.0391 78.6094C61.0352 78.8555 61.25 79.0547 61.5078 79.0547C61.7656 79.0547 61.9805 78.8555 61.9844 78.6094C61.9805 78.3594 61.7656 78.1602 61.5078 78.1641C61.25 78.1602 61.0352 78.3594 61.0391 78.6094ZM66.4062 79.7578H65.6719L64.5156 83.125H64.4688L63.3125 79.7578H62.5781L64.1406 84H64.8359L66.4062 79.7578ZM66.8125 82.7969C66.8125 83.625 67.4531 84.0977 68.2578 84.1016C68.9961 84.0977 69.3828 83.707 69.5234 83.4219H69.5547V84H70.2188V81.2031C70.2227 79.8672 69.1797 79.7031 68.625 79.7031C67.6875 79.7031 67.0234 80.1758 66.9375 80.8594H67.6406C67.7344 80.5352 68.0586 80.2891 68.5938 80.2891C69.2344 80.2891 69.5547 80.6016 69.5547 81.1406V81.4844C69.3633 81.4883 68.6797 81.5273 68.4062 81.5469C67.6719 81.6016 66.8125 81.8242 66.8125 82.7969ZM67.4844 82.8281C67.4883 82.3633 67.875 82.1484 68.4844 82.1094C68.6875 82.0977 69.3555 82.0469 69.5547 82.0352V82.4609C69.5547 82.9961 69.1328 83.5039 68.375 83.5C67.8594 83.5039 67.4883 83.2773 67.4844 82.8281ZM73.1484 79.7578H72.2578V78.7422H71.5781V79.7578H70.9375V80.3203H71.5781V82.9531C71.582 83.7031 72.1758 84.0547 72.7422 84.0547C72.9414 84.0547 73.1055 84.0391 73.2109 84.0234V83.3984C73.1133 83.4023 72.9336 83.4141 72.8125 83.4141C72.5273 83.4141 72.2539 83.3242 72.2578 82.7812V80.3203H73.1484V79.7578ZM75.75 84.0859C76.625 84.0898 77.2539 83.6523 77.4531 83.0078H76.7344C76.5781 83.2695 76.2578 83.4922 75.75 83.4922C74.9961 83.4922 74.4727 83 74.4375 82.1016H77.5156V81.8203C77.5195 80.25 76.5781 79.7031 75.6875 79.7031C74.5352 79.7031 73.7656 80.6094 73.7656 81.9141C73.7656 83.2148 74.5234 84.0898 75.75 84.0859ZM74.4414 81.5312C74.4883 80.875 74.9531 80.2969 75.6875 80.2969C76.3867 80.2969 76.832 80.8242 76.8359 81.5312H74.4414ZM80.4844 84H81.1875V81.8047H82.4141C82.4609 81.8047 82.5078 81.8047 82.5508 81.8008L83.7344 84H84.5547L83.2812 81.6719C84 81.4219 84.3359 80.8359 84.3359 80.0859C84.3359 79.0781 83.7305 78.3438 82.4062 78.3438H80.4844V84ZM81.1875 81.1641V78.9688H82.375C83.2852 78.9688 83.6367 79.4102 83.6406 80.0859C83.6367 80.7578 83.2852 81.1641 82.3828 81.1641H81.1875ZM87 84.0859C87.875 84.0898 88.5039 83.6523 88.7031 83.0078H87.9844C87.8281 83.2695 87.5078 83.4922 87 83.4922C86.2461 83.4922 85.7227 83 85.6875 82.1016H88.7656V81.8203C88.7695 80.25 87.8281 79.7031 86.9375 79.7031C85.7852 79.7031 85.0156 80.6094 85.0156 81.9141C85.0156 83.2148 85.7734 84.0898 87 84.0859ZM85.6914 81.5312C85.7383 80.875 86.2031 80.2969 86.9375 80.2969C87.6367 80.2969 88.082 80.8242 88.0859 81.5312H85.6914ZM89.6406 85.5938H90.3125V83.3516H90.3672C90.5117 83.5859 90.793 84.0898 91.6016 84.0859C92.6602 84.0898 93.3984 83.2383 93.3984 81.8906C93.3984 80.5469 92.6602 79.7031 91.5938 79.7031C90.7695 79.7031 90.5117 80.2031 90.3672 80.4297H90.2891V79.7578H89.6406V85.5938ZM90.2969 81.875C90.3008 80.9336 90.7148 80.3047 91.5078 80.3047C92.3242 80.3047 92.7266 80.9883 92.7266 81.875C92.7266 82.7773 92.3125 83.4844 91.5078 83.4844C90.7266 83.4844 90.3008 82.8281 90.2969 81.875ZM96.0078 84.0859C97.1602 84.0898 97.9336 83.2148 97.9297 81.8984C97.9336 80.5742 97.1602 79.7031 96.0078 79.7031C94.8516 79.7031 94.0703 80.5742 94.0703 81.8984C94.0703 83.2148 94.8516 84.0898 96.0078 84.0859ZM94.7422 81.8984C94.7461 81.0547 95.1445 80.2969 96.0078 80.2969C96.8633 80.2969 97.2578 81.0547 97.2578 81.8984C97.2578 82.7461 96.8633 83.4922 96.0078 83.4922C95.1445 83.4922 94.7461 82.7461 94.7422 81.8984ZM101.172 80.8594H101.828C101.742 80.1719 101.191 79.7031 100.312 79.7031C99.3789 79.7031 98.7422 80.2266 98.7422 80.9531C98.7422 81.5195 99.1367 81.9219 99.875 82.0938L100.516 82.2422C100.996 82.3555 101.211 82.5508 101.211 82.8516C101.211 83.25 100.832 83.5039 100.227 83.5C99.6914 83.5039 99.3906 83.3047 99.3125 82.8906H98.6094C98.7227 83.6641 99.2891 84.0898 100.242 84.0859C101.305 84.0898 101.902 83.5469 101.906 82.8125C101.902 82.2227 101.531 81.8438 100.773 81.6641L100.141 81.5078C99.6445 81.3867 99.418 81.1953 99.4141 80.9141C99.418 80.5586 99.7891 80.2773 100.312 80.2734C100.809 80.2773 101.078 80.5078 101.172 80.8594ZM102.781 84H103.453V79.7578H102.781V84ZM102.648 78.6094C102.645 78.8555 102.859 79.0547 103.117 79.0547C103.375 79.0547 103.59 78.8555 103.594 78.6094C103.59 78.3594 103.375 78.1602 103.117 78.1641C102.859 78.1602 102.645 78.3594 102.648 78.6094ZM106.375 79.7578H105.484V78.7422H104.805V79.7578H104.164V80.3203H104.805V82.9531C104.809 83.7031 105.402 84.0547 105.969 84.0547C106.168 84.0547 106.332 84.0391 106.438 84.0234V83.3984C106.34 83.4023 106.16 83.4141 106.039 83.4141C105.754 83.4141 105.48 83.3242 105.484 82.7812V80.3203H106.375V79.7578ZM108.93 84.0859C110.082 84.0898 110.855 83.2148 110.852 81.8984C110.855 80.5742 110.082 79.7031 108.93 79.7031C107.773 79.7031 106.992 80.5742 106.992 81.8984C106.992 83.2148 107.773 84.0898 108.93 84.0859ZM107.664 81.8984C107.668 81.0547 108.066 80.2969 108.93 80.2969C109.785 80.2969 110.18 81.0547 110.18 81.8984C110.18 82.7461 109.785 83.4922 108.93 83.4922C108.066 83.4922 107.668 82.7461 107.664 81.8984ZM111.734 84H112.406V81.3281C112.406 80.7578 112.859 80.3359 113.469 80.3359C113.645 80.3359 113.824 80.3711 113.875 80.3828V79.7031C113.797 79.6953 113.625 79.6914 113.523 79.6875C113.023 79.6914 112.582 79.9766 112.43 80.4062H112.383V79.7578H111.734V84ZM115.094 85.5938C115.695 85.5898 116.109 85.2773 116.359 84.6094L118.156 79.7578H117.422L116.266 83.125H116.219L115.062 79.7578H114.328L115.898 84.0312L115.773 84.3516C115.551 84.9727 115.32 84.9883 115.047 84.9922C114.941 84.9883 114.789 84.9844 114.719 84.9766V85.5781C114.805 85.5859 114.949 85.5898 115.094 85.5938ZM120.914 78.1953C119.816 78.1992 119.035 78.8633 119.039 79.8281C119.035 80.7969 119.816 81.457 120.914 81.4609C122.004 81.457 122.777 80.7969 122.781 79.8281C122.777 78.8633 122.004 78.1992 120.914 78.1953ZM118.68 82.5938L118.766 83.1172C120.016 83.1172 121.723 83.1094 123.312 82.8125L123.266 82.3594C121.73 82.5859 119.961 82.5977 118.68 82.5938ZM119.641 79.8281C119.637 79.1836 120.172 78.7344 120.914 78.7344C121.648 78.7344 122.184 79.1836 122.18 79.8281C122.184 80.4766 121.648 80.9219 120.914 80.9219C120.172 80.9219 119.637 80.4766 119.641 79.8281ZM123.727 84.6484H124.336V77.6875H123.727V84.6484ZM131.094 78.4141H127.945V78.9219H130.488C130.457 79.3516 130.387 79.7617 130.258 80.1523L127.594 80.3281L127.703 80.8594L130.07 80.6367C129.637 81.5742 128.848 82.375 127.57 83.0156L127.922 83.4844C130.375 82.2539 131.086 80.418 131.094 78.4141ZM131.07 80.9922H132.703V84.6328H133.312V77.6875H132.703V80.4844H131.07V80.9922ZM140.211 77.6875H139.602V82.3516H140.211V77.6875ZM134.844 81.3516H138.102V78.2891H134.844V81.3516ZM135.281 84.1172L135.523 84.6016C136.566 84.4023 137.535 83.8555 137.949 83.0312C138.352 83.8555 139.309 84.4023 140.359 84.6016L140.602 84.1172C139.371 83.9023 138.266 83.1484 138.273 82.1406V81.9141H137.633V82.1406C137.633 83.1562 136.504 83.9062 135.281 84.1172ZM135.445 80.8516V78.7891H137.5V80.8516H135.445ZM146.891 77.6875H146.273V84.6328H146.891V81.0703H147.945V80.5547H146.891V77.6875ZM141.367 82.7109L141.859 83.0625C143.121 81.7305 143.492 80.0977 143.5 78.4453H141.586V78.9609H142.918C142.84 80.3438 142.414 81.6367 141.367 82.7109ZM143.359 83.1797L143.859 83.5234C145.16 82.0117 145.402 80.0938 145.406 78.4453H143.719V78.9609H144.828C144.77 80.4102 144.445 81.9531 143.359 83.1797ZM150.789 79.8203V78.9141H152.445V78.4062H148.531V78.9141H150.172V79.8203C150.168 81.0234 149.301 82.3359 148.305 82.8125L148.672 83.2969C149.465 82.8984 150.168 82.0156 150.492 80.9961C150.816 81.957 151.516 82.7578 152.328 83.125L152.672 82.6406C151.648 82.1992 150.793 81 150.789 79.8203ZM153.414 84.6328H154.031V77.6875H153.414V84.6328ZM158.68 77.8047H158.07V80.0859H160.078V80.7734H157.227V81.2734H163.555V80.7734H160.68V80.0859H162.727V77.8047H162.117V78.4688H158.68V77.8047ZM157.992 82.3203H162.141V82.9375H158.008V84.5547H162.953V84.0703H158.617V83.3906H162.742V81.8516H157.992V82.3203ZM158.68 79.6094V78.9375H162.117V79.6094H158.68ZM169.633 78.3359V77.9375H169V78.3359C169 79.332 167.73 80.1602 166.477 80.3359L166.727 80.8359C167.809 80.6562 168.875 80.0664 169.32 79.207C169.766 80.0586 170.836 80.6562 171.914 80.8359L172.164 80.3359C170.91 80.1602 169.637 79.3164 169.633 78.3359ZM166.148 82.1172H169V84.6328H169.602V82.1172H172.477V81.6016H166.148V82.1172ZM177.422 82.3516V81.9688H176.828V82.3516C176.82 83.0156 176.293 83.7578 175.414 84.0859L175.727 84.5391C176.391 84.2891 176.867 83.8047 177.117 83.2461C177.324 83.8281 177.754 84.3359 178.43 84.5938C179.07 84.3242 179.496 83.7891 179.711 83.2266C179.953 83.8086 180.438 84.293 181.133 84.5391L181.438 84.0859C180.547 83.7773 180.02 83.0664 180.023 82.3516V81.9688H179.422V82.3516C179.426 82.8867 179.074 83.582 178.41 83.9922C177.75 83.6172 177.418 82.9648 177.422 82.3516ZM175.234 79.7266C175.23 80.6797 176 81.3359 177.055 81.3359C178.109 81.3359 178.871 80.6797 178.875 79.7266C178.871 78.7578 178.109 78.0977 177.055 78.1016C176 78.0977 175.23 78.7578 175.234 79.7266ZM175.836 79.7266C175.828 79.0781 176.34 78.6172 177.055 78.625C177.762 78.6172 178.273 79.0781 178.273 79.7266C178.273 80.3711 177.762 80.8242 177.055 80.8281C176.34 80.8242 175.828 80.3711 175.836 79.7266ZM180.195 81.6641H180.805V77.6953H180.195V81.6641ZM183.852 78.2266C182.824 78.2305 182.105 79.1719 182.109 80.6484C182.105 82.1289 182.824 83.0664 183.852 83.0625C184.82 83.0664 185.516 82.2148 185.582 80.8516H187.133V84.6484H187.742V77.6875H187.133V80.3438H185.574C185.48 79.043 184.797 78.2305 183.852 78.2266ZM182.695 80.6484C182.699 79.5195 183.168 78.7773 183.852 78.7734C184.531 78.7773 185.008 79.5195 185.008 80.6484C185.008 81.7773 184.531 82.5195 183.852 82.5156C183.168 82.5195 182.699 81.7773 182.695 80.6484ZM195.258 83.2266H193.68V81.3359C194.254 81.0273 194.602 80.5352 194.602 79.9141C194.602 78.8398 193.547 78.1328 192.062 78.125C190.578 78.1328 189.523 78.8398 189.523 79.9141C189.523 80.5469 189.883 81.0469 190.477 81.3555V83.2266H188.898V83.7422H195.258V83.2266ZM190.117 79.9141C190.113 79.1367 190.922 78.625 192.062 78.6328C193.191 78.625 194.008 79.1367 194.008 79.9141C194.008 80.6914 193.191 81.2109 192.062 81.2109C190.922 81.2109 190.113 80.6914 190.117 79.9141ZM191.078 83.2266V81.5781C191.375 81.6562 191.707 81.6953 192.062 81.6953C192.426 81.6953 192.762 81.6523 193.062 81.5742V83.2266H191.078ZM196.547 84.0469C196.824 84.043 197.051 83.8164 197.047 83.5391C197.051 83.2656 196.824 83.0391 196.547 83.0391C196.273 83.0391 196.039 83.2656 196.047 83.5391C196.039 83.8164 196.273 84.043 196.547 84.0469Z" fill="#666666"/>
<defs>
<clipPath id="clip0_134_3">
<rect width="24" height="24" fill="white" transform="translate(17 38)"/>
</clipPath>
</defs>
</svg>
